M48
;Layer_Color=9474304
;FILE_FORMAT=4:3
METRIC,TZ
;TYPE=PLATED
T01F00S00C2.000
T02F00S00C3.175
%
T01
X6000Y21000
Y27000
X14000Y26000
Y20000
X20000
X26000Y16000
X36000
Y27000
X31000
X26000
X20000Y30000
X26500Y38000
X32000
X37500
X13000Y39000
X7000
X44000Y38000
Y29000
X50000
Y19000
X44000
X57000Y19000
Y25000
X66000Y27000
Y21000
X54000Y38000
Y44000
X44000
X37000
X27000
T02
X4500Y15000
X68500
Y49000
X4500
M30
